<svg xmlns="http://www.w3.org/2000/svg" viewBox="0 0 36.09 36.09"><defs><style>.cls-1,.cls-2{fill:#fff;}.cls-1{opacity:0.5;}</style></defs><title>admin-tools</title><g id="Layer_2" data-name="Layer 2"><g id="N700"><path class="cls-1" d="M28.9,22.09a7,7,0,0,0-2,.34A2.06,2.06,0,0,1,24.8,22L20.87,18,19.5,19.41,18,20.87,22,24.8a2.06,2.06,0,0,1,.46,2.11,7,7,0,0,0-.34,2,7.1,7.1,0,0,0,6.33,7.15,6.91,6.91,0,0,0,3-.38L28.7,32.94V28.7h4.24l2.74,2.74a6.92,6.92,0,0,0,.38-3A7.1,7.1,0,0,0,28.9,22.09Z"/><path class="cls-1" d="M18,15.22l-3.93-3.93a2.06,2.06,0,0,1-.46-2.11,7,7,0,0,0,.34-2A7.1,7.1,0,0,0,7.67,0a6.92,6.92,0,0,0-3,.38L7.39,3.15V7.39H3.15L.41,4.65a6.92,6.92,0,0,0-.38,3A7.1,7.1,0,0,0,7.19,14a7,7,0,0,0,2-.34,2.06,2.06,0,0,1,2.11.46L15.22,18l1.46-1.46Z"/><path class="cls-2" d="M20.87,18l3.93-3.93a2.06,2.06,0,0,1,2.11-.46,7,7,0,0,0,2,.34,7.1,7.1,0,0,0,7.15-6.33,6.92,6.92,0,0,0-.38-3L32.94,7.39H28.7V3.15L31.44.41a6.91,6.91,0,0,0-3-.38,7.1,7.1,0,0,0-6.33,7.15,7,7,0,0,0,.34,2A2.06,2.06,0,0,1,22,11.29L18,15.22l-1.37,1.37L15.22,18,11.29,22a2.06,2.06,0,0,1-2.11.46,7,7,0,0,0-2-.34A7.1,7.1,0,0,0,0,28.42a6.92,6.92,0,0,0,.38,3L3.15,28.7H7.39v4.24L4.65,35.68a6.92,6.92,0,0,0,3,.38A7.1,7.1,0,0,0,14,28.9a7,7,0,0,0-.34-2,2.06,2.06,0,0,1,.46-2.11L18,20.87l1.46-1.46Z"/></g></g></svg>