<?xml version="1.0" encoding="UTF-8"?>
<svg width="175px" height="30px" viewBox="0 0 175 30" version="1.1" xmlns="http://www.w3.org/2000/svg" xmlns:xlink="http://www.w3.org/1999/xlink">
    <!-- Generator: Sketch 49 (51002) - http://www.bohemiancoding.com/sketch -->
    <title>Page 1</title>
    <desc>Created with Sketch.</desc>
    <defs>
        <polygon id="path-1" points="2.91262136e-05 0.234757282 29.4467542 0.234757282 29.4467542 29.7086214 2.91262136e-05 29.7086214"></polygon>
        <polygon id="path-3" points="0 29.7652427 174.757282 29.7652427 174.757282 0.291262136 0 0.291262136"></polygon>
    </defs>
    <g id="Customer-Stories" stroke="none" stroke-width="1" fill="none" fill-rule="evenodd">
        <g id="Customer-stories" transform="translate(-933.000000, -466.000000)">
            <g id="Page-1" transform="translate(933.000000, 466.000000)">
                <g id="Group-3" transform="translate(0.000000, 0.056505)">
                    <mask id="mask-2" fill="white">
                        <use xlink:href="#path-1"></use>
                    </mask>
                    <g id="Clip-2"></g>
                    <path d="M14.7378932,29.7086214 L14.7378932,23.9998835 C20.7961456,23.9998835 25.4563398,18.0001748 23.1553689,11.6503689 C22.2815825,9.29114563 20.4175049,7.39794175 18.0582816,6.55328155 C11.708767,4.25260194 5.70876699,8.91279612 5.70876699,14.9707573 L2.91262136e-05,14.9707573 C2.91262136e-05,5.32998058 9.32041748,-2.18458252 19.4272136,0.961048544 C23.8543981,2.32998058 27.3495437,5.85454369 28.7184757,10.2523107 C31.8641068,20.388233 24.3786699,29.7086214 14.7378932,29.7086214" id="Fill-1" fill="#42526E" mask="url(#mask-2)"></path>
                </g>
                <mask id="mask-4" fill="white">
                    <use xlink:href="#path-3"></use>
                </mask>
                <g id="Clip-5"></g>
                <polygon id="Fill-4" fill="#42526E" mask="url(#mask-4)" points="9.05825243 24.0565049 14.7378641 24.0565049 14.7378641 18.3768932 9.05825243 18.3768932"></polygon>
                <polygon id="Fill-6" fill="#42526E" mask="url(#mask-4)" points="4.68932039 28.4254369 9.05825243 28.4254369 9.05825243 24.0565049 4.68932039 24.0565049"></polygon>
                <polygon id="Fill-7" fill="#42526E" mask="url(#mask-4)" points="1.01941748 24.0565049 4.68932039 24.0565049 4.68932039 20.4157282 1.01941748 20.4157282"></polygon>
                <path d="M43.9805825,9.93029126 L45.6699029,9.93029126 C47.5339806,9.93029126 49.0776699,10.308932 50.2427184,11.0079612 C51.5242718,11.7943689 52.1941748,13.2798058 52.1941748,15.4060194 C52.1941748,17.6196117 51.5242718,19.163301 50.2427184,20.0079612 C49.1359223,20.7361165 47.592233,21.1147573 45.6990291,21.1147573 L44.0097087,21.1147573 L44.0097087,9.93029126 L43.9805825,9.93029126 Z M52.4271845,8.82349515 C50.7378641,7.6584466 48.6407767,7.04679612 46.1941748,7.04679612 L40.8640777,7.04679612 L40.8640777,23.9691262 L46.1941748,23.9691262 C48.6407767,23.9691262 50.7378641,23.3574757 52.4271845,22.1050485 C53.3592233,21.4642718 54.0873786,20.532233 54.5825243,19.3963107 C55.0776699,18.2603883 55.3398058,16.9205825 55.3398058,15.4060194 C55.3398058,13.9205825 55.0776699,12.5807767 54.5825243,11.4448544 C54.0873786,10.3380583 53.3592233,9.43514563 52.4271845,8.82349515 Z" id="Fill-8" fill="#42526E" mask="url(#mask-4)"></path>
                <path d="M59.0679029,6.8428835 C58.5436311,6.8428835 58.1067379,7.01764078 57.7572233,7.36715534 C57.4077087,7.7166699 57.2038252,8.15356311 57.2038252,8.64870874 C57.2038252,9.17298058 57.3785825,9.60987379 57.7572233,9.95938835 C58.1067379,10.3089029 58.5436311,10.5127864 59.0679029,10.5127864 C59.5921748,10.5127864 60.029068,10.3380291 60.3785825,9.95938835 C60.7280971,9.60987379 60.9319806,9.14385437 60.9319806,8.64870874 C60.9319806,8.12443689 60.7572233,7.68754369 60.3785825,7.36715534 C60.029068,7.01764078 59.5630485,6.8428835 59.0679029,6.8428835" id="Fill-9" fill="#42526E" mask="url(#mask-4)"></path>
                <polygon id="Fill-10" fill="#42526E" mask="url(#mask-4)" points="57.5242718 23.9982524 60.5242718 23.9982524 60.5242718 12.0565049 57.5242718 12.0565049"></polygon>
                <path d="M70.6602233,20.0954563 C70.1359515,20.6779806 69.4660485,20.9692427 68.5922621,20.9692427 C67.7184757,20.9692427 67.0485728,20.6779806 66.5534272,20.0954563 C66.0291553,19.512932 65.7670194,18.7265243 65.7670194,17.7653592 C65.7670194,16.8039029 66.0291553,15.9883689 66.5534272,15.4058447 C67.077699,14.8233204 67.7476019,14.5032233 68.5922621,14.5032233 C69.4660485,14.5032233 70.1359515,14.7944854 70.6602233,15.4058447 C71.1844951,15.9883689 71.4466311,16.8039029 71.4466311,17.7653592 C71.4466311,18.7265243 71.1553689,19.512932 70.6602233,20.0954563 Z M71.4466311,13.0469126 C70.5437184,12.2313786 69.524301,11.765068 68.4466311,11.765068 C66.7864369,11.765068 65.4175049,12.3475922 64.339835,13.4546796 C63.262165,14.5614757 62.7378932,16.0177864 62.7378932,17.7359417 C62.7378932,19.4252621 63.262165,20.8527379 64.339835,22.0177864 C65.4175049,23.1242913 66.7864369,23.7068155 68.4466311,23.7068155 C69.6116796,23.7068155 70.6019709,23.3867184 71.4175049,22.7459417 L71.4175049,23.0372039 C71.4175049,24.0274951 71.1553689,24.7847767 70.6310971,25.3381748 C70.1068252,25.8624466 69.3786699,26.1242913 68.4757573,26.1242913 C67.077699,26.1242913 66.2330388,25.5711845 65.1553689,24.1437087 L63.116534,26.0954563 L63.1747864,26.1825437 C63.6116796,26.7944854 64.2815825,27.4061359 65.1844951,27.9886602 C66.0874078,28.5711845 67.1942039,28.8624466 68.5340097,28.8624466 C70.3107087,28.8624466 71.7670194,28.3087573 72.8155631,27.2313786 C73.893233,26.1537087 74.4175049,24.6973981 74.4175049,22.8915728 L74.4175049,12.0563301 L71.4757573,12.0563301 L71.4757573,13.0469126 L71.4466311,13.0469126 Z" id="Fill-11" fill="#42526E" mask="url(#mask-4)"></path>
                <polygon id="Fill-12" fill="#42526E" mask="url(#mask-4)" points="76.9514563 23.9982524 79.9514563 23.9982524 79.9514563 12.0565049 76.9514563 12.0565049"></polygon>
                <path d="M78.4951456,6.8428835 C77.9708738,6.8428835 77.5339806,7.01764078 77.184466,7.36715534 C76.8349515,7.7166699 76.631068,8.15356311 76.631068,8.64870874 C76.631068,9.17298058 76.8058252,9.60987379 77.184466,9.95938835 C77.5339806,10.3089029 77.9708738,10.5127864 78.4951456,10.5127864 C79.0194175,10.5127864 79.4563107,10.3380291 79.8058252,9.95938835 C80.1553398,9.60987379 80.3592233,9.14385437 80.3592233,8.64870874 C80.3592233,8.12443689 80.184466,7.68754369 79.8058252,7.36715534 C79.4563107,7.01764078 78.9902913,6.8428835 78.4951456,6.8428835" id="Fill-13" fill="#42526E" mask="url(#mask-4)"></path>
                <path d="M86.5340097,8.85256311 L83.5922621,8.85256311 L83.5922621,12.0855728 L81.8738155,12.0855728 L81.8738155,14.8234369 L83.5922621,14.8234369 L83.5922621,19.7748932 C83.5922621,21.3185825 83.9126505,22.4256699 84.524301,23.0661553 C85.1359515,23.706932 86.2136214,24.0276117 87.7573107,24.0276117 C88.2524563,24.0276117 88.7476019,23.9981942 89.2136214,23.969068 L89.3592524,23.969068 L89.3592524,21.2312039 L88.339835,21.2894563 C87.6116796,21.2894563 87.1456602,21.1729515 86.9126505,20.9108155 C86.6796408,20.6486796 86.5631359,20.1244078 86.5631359,19.338 L86.5631359,14.7943107 L89.3592524,14.7943107 L89.3592524,12.0564466 L86.5631359,12.0564466 L86.5631359,8.85256311 L86.5340097,8.85256311 Z" id="Fill-14" fill="#42526E" mask="url(#mask-4)"></path>
                <polygon id="Fill-15" fill="#42526E" mask="url(#mask-4)" points="103.398058 23.9691262 106.398058 23.9691262 106.398058 7.04679612 103.398058 7.04679612"></polygon>
                <path d="M136.718563,19.7165825 C136.194,20.3285243 135.640893,20.8525049 135.204,21.114932 C134.795942,21.3767767 134.271961,21.5224078 133.660311,21.5224078 C132.786524,21.5224078 132.058369,21.2023107 131.475845,20.5324078 C130.89332,19.8622136 130.602058,19.0178447 130.602058,17.9984272 C130.602058,16.9790097 130.89332,16.1340583 131.446427,15.4932816 C132.028951,14.8233786 132.728272,14.5032816 133.602058,14.5032816 C134.563223,14.5032816 135.582641,15.1146408 136.456427,16.1340583 L138.436718,14.2408544 C137.155456,12.551534 135.495262,11.7651262 133.51468,11.7651262 C131.854485,11.7651262 130.42701,12.3767767 129.261961,13.5418252 C128.096913,14.7068738 127.514388,16.2214369 127.514388,17.9984272 C127.514388,19.774835 128.096913,21.2605631 129.261961,22.4544466 C130.42701,23.6486214 131.854485,24.2311456 133.51468,24.2311456 C135.699146,24.2311456 137.446718,23.2993981 138.611767,21.5806602 L136.718563,19.7165825 Z" id="Fill-16" fill="#42526E" mask="url(#mask-4)"></path>
                <path d="M142.485495,16.542 C142.631126,15.9594757 142.892971,15.493165 143.271903,15.1148155 C143.67967,14.7070485 144.20365,14.503165 144.844718,14.503165 C145.572874,14.503165 146.126272,14.7070485 146.504913,15.1148155 C146.854427,15.493165 147.058311,15.9594757 147.116272,16.5125825 L142.485495,16.5125825 L142.485495,16.542 Z M149.038893,13.7167573 C148.602,13.134233 148.019476,12.6390874 147.320447,12.2895728 C146.592291,11.9400583 145.776757,11.765301 144.844718,11.765301 C143.155398,11.765301 141.786466,12.3769515 140.767049,13.6002524 C139.776757,14.8235534 139.252194,16.3089903 139.252194,18.0856893 C139.252194,19.8915146 139.805883,21.3769515 140.91268,22.542 C141.99035,23.6779223 143.475495,24.2604466 145.252485,24.2604466 C147.261903,24.2604466 148.951515,23.4449126 150.174524,21.8138447 L150.233068,21.726466 L148.28132,19.8332621 C148.106854,20.0662718 147.844427,20.2989903 147.611709,20.5322913 C147.320447,20.8235534 147.029184,21.0271456 146.737922,21.1727767 C146.301029,21.4060777 145.776757,21.4934563 145.223068,21.4934563 C144.378699,21.4934563 143.708796,21.2604466 143.184233,20.765301 C142.689379,20.3284078 142.398117,19.716466 142.339864,18.9594757 L150.29132,18.9594757 L150.320155,17.8526796 C150.320155,17.0662718 150.203942,16.3381165 150.000058,15.6387961 C149.796175,14.9691845 149.475786,14.3284078 149.038893,13.7167573 Z" id="Fill-17" fill="#42526E" mask="url(#mask-4)"></path>
                <path d="M155.242718,19.4253204 C155.592233,19.1923107 156.058252,19.0760971 156.669903,19.0760971 C157.398058,19.0760971 158.15534,19.2217282 158.941748,19.5129903 L158.941748,20.6780388 C158.300971,21.2893981 157.427184,21.5806602 156.349515,21.5806602 C155.825243,21.5806602 155.417476,21.4641553 155.15534,21.2311456 C154.893204,20.9981359 154.747573,20.736 154.747573,20.3573592 C154.747573,19.9787184 154.92233,19.6586214 155.242718,19.4253204 M160.572816,12.959301 C159.669903,12.1731845 158.417476,11.7942524 156.84466,11.7942524 C155.854369,11.7942524 154.92233,12.0275534 154.07767,12.4350291 C153.291262,12.8427961 152.533981,13.4838641 152.038835,14.3576505 L152.067961,14.3864854 L153.990291,16.2214369 C154.776699,14.9690097 155.650485,14.5321165 156.815534,14.5321165 C157.456311,14.5321165 157.951456,14.7068738 158.359223,15.0272621 C158.76699,15.3476505 158.941748,15.7845437 158.941748,16.3091068 L158.941748,16.8916311 C158.184466,16.6583301 157.456311,16.5421165 156.728155,16.5421165 C155.242718,16.5421165 154.019417,16.8916311 153.116505,17.5903689 C152.213592,18.2896893 151.747573,19.3091068 151.747573,20.5612427 C151.747573,21.6680388 152.126214,22.6000777 152.912621,23.2699806 C153.699029,23.9107573 154.660194,24.2605631 155.796117,24.2605631 C156.932039,24.2605631 158.009709,23.7942524 158.970874,23.0081359 L158.970874,23.9981359 L161.912621,23.9981359 L161.912621,16.3091068 C161.970874,14.8816311 161.504854,13.7457087 160.572816,12.959301" id="Fill-18" fill="#42526E" mask="url(#mask-4)"></path>
                <path d="M173.504913,13.1924854 C172.660252,12.2604466 171.495204,11.7944272 170.009767,11.7944272 C168.815301,11.7944272 167.854427,12.1439417 167.126272,12.8138447 L167.126272,12.0856893 L164.184524,12.0856893 L164.184524,24.0274369 L167.184524,24.0274369 L167.184524,17.4157864 C167.184524,16.5125825 167.388408,15.7844272 167.825301,15.2895728 C168.262194,14.765301 168.815301,14.5322913 169.602,14.5322913 C170.271612,14.5322913 170.796175,14.765301 171.174816,15.2019029 C171.553456,15.6682136 171.75734,16.2798641 171.75734,17.0662718 L171.75734,23.9691845 L174.75734,23.9691845 L174.75734,17.0662718 C174.75734,15.4352039 174.349282,14.1245243 173.504913,13.1924854" id="Fill-19" fill="#42526E" mask="url(#mask-4)"></path>
                <path d="M94.3106214,19.4253204 C94.6601359,19.1923107 95.1261553,19.0760971 95.7378058,19.0760971 C96.4659612,19.0760971 97.2232427,19.2217282 98.0096505,19.5129903 L98.0096505,20.6780388 C97.3688738,21.2893981 96.4950874,21.5806602 95.4174175,21.5806602 C94.8931456,21.5806602 94.4856699,21.4641553 94.2232427,21.2311456 C93.9611068,20.9981359 93.8154757,20.736 93.8154757,20.3573592 C93.8154757,19.9787184 93.9611068,19.6586214 94.3106214,19.4253204 M99.6407184,12.959301 C98.7378058,12.1731845 97.4853786,11.7942524 95.9125631,11.7942524 C94.9225631,11.7942524 93.990233,12.0275534 93.1455728,12.4350291 C92.359165,12.8427961 91.6018835,13.4838641 91.1067379,14.3576505 L91.1361553,14.3864854 L93.0581942,16.2214369 C93.8446019,14.9690097 94.7183883,14.5321165 95.8834369,14.5321165 C96.5245049,14.5321165 97.0193592,14.7068738 97.4271262,15.0272621 C97.8351845,15.3476505 98.0096505,15.7845437 98.0096505,16.3091068 L98.0096505,16.8916311 C97.2526602,16.6583301 96.5245049,16.5421165 95.7963495,16.5421165 C94.3106214,16.5421165 93.0873204,16.8916311 92.1844078,17.5903689 C91.2817864,18.2896893 90.8154757,19.3091068 90.8154757,20.5612427 C90.8154757,21.6680388 91.1941165,22.6000777 91.9805243,23.2699806 C92.766932,23.9107573 93.7280971,24.2605631 94.8640194,24.2605631 C95.9999417,24.2605631 97.0776117,23.7942524 98.0387767,23.0081359 L98.0387767,23.9981359 L100.980524,23.9981359 L100.980524,16.3091068 C101.00965,14.8816311 100.543631,13.7457087 99.6407184,12.959301" id="Fill-20" fill="#42526E" mask="url(#mask-4)"></path>
                <path d="M117.29132,9.87198058 C114.174816,9.87198058 111.640835,12.4059612 111.640835,15.522466 C111.640835,18.6392621 114.174816,21.1729515 117.29132,21.1729515 C120.407825,21.1729515 122.941515,18.6392621 122.941515,15.522466 C122.941515,12.4059612 120.407825,9.87198058 117.29132,9.87198058 M117.29132,24.2312039 C112.485495,24.2312039 108.553456,20.3282913 108.553456,15.4933398 C108.553456,10.6583883 112.456078,6.75547573 117.29132,6.75547573 C122.097146,6.75547573 126.029184,10.6583883 126.029184,15.4933398 C126.029184,20.3282913 122.097146,24.2312039 117.29132,24.2312039" id="Fill-21" fill="#42526E" mask="url(#mask-4)"></path>
            </g>
        </g>
    </g>
</svg>