<?xml version="1.0" encoding="UTF-8"?>
<svg width="152px" height="30px" viewBox="0 0 152 30" version="1.1" xmlns="http://www.w3.org/2000/svg" xmlns:xlink="http://www.w3.org/1999/xlink">
    <!-- Generator: Sketch 49 (51002) - http://www.bohemiancoding.com/sketch -->
    <title>Page 1</title>
    <desc>Created with Sketch.</desc>
    <defs></defs>
    <g id="Customer-Stories" stroke="none" stroke-width="1" fill="none" fill-rule="evenodd">
        <g id="Customer-stories" transform="translate(-343.000000, -466.000000)" fill="#42526E">
            <g id="Page-1" transform="translate(343.000000, 466.000000)">
                <path d="M26.3903906,-4.6875e-05 L17.6252344,5.62495312 L26.4377344,11.2030781 L17.6252344,16.8280781 L26.3903906,22.4999531 L35.2033594,16.8749531 L26.3903906,11.2499531 L35.2033594,5.62495312 L26.3903906,-4.6875e-05 Z M8.81273437,-4.6875e-05 L0.000234375,5.62495312 L8.81273437,11.2030781 L0.000234375,16.8280781 L8.81273437,22.4999531 L17.6252344,16.8749531 L8.81273437,11.2499531 L17.6252344,5.62495312 L8.81273437,-4.6875e-05 Z M8.76585937,24.2807344 L17.5783594,29.9062031 L26.3903906,24.2807344 L17.5783594,18.6562031 L8.76585937,24.2807344 Z" id="Fill-1"></path>
                <path d="M141.703031,16.4529375 L136.406156,9.1873125 L140.953031,9.1873125 L143.999906,13.7341875 L147.093656,9.1873125 L151.594125,9.1873125 L146.2035,16.4060625 L151.874906,24.2810625 L147.421781,24.2810625 L143.953031,19.2654375 L140.5785,24.2810625 L135.937406,24.2810625 L141.703031,16.4529375 Z M132.562406,17.0154375 L132.562406,16.6404375 C132.562406,13.8279375 131.156156,12.1409062 128.906156,12.1409062 C126.703031,12.1409062 125.249906,13.6877812 125.249906,16.6404375 L125.249906,17.0154375 C125.249906,19.7341875 126.656156,21.2815313 128.906156,21.2815313 C131.156156,21.2341875 132.562406,19.7341875 132.562406,17.0154375 Z M121.265531,17.0627813 L121.265531,16.6404375 C121.265531,11.5784062 124.499906,8.8123125 128.906156,8.8123125 C133.406156,8.8123125 136.546781,11.5784062 136.546781,16.6404375 L136.546781,17.0627813 C136.546781,22.0310625 133.453031,24.7034063 128.906156,24.7034063 C124.031156,24.6560625 121.265531,22.0310625 121.265531,17.0627813 Z M115.546781,16.8284062 L115.546781,16.4529375 C115.546781,13.6877812 114.046781,12.1409062 111.937406,12.1409062 C109.781156,12.1409062 108.281156,13.8748125 108.281156,16.5002813 L108.281156,16.8284062 C108.281156,19.6409063 109.734281,21.2815313 111.890531,21.2815313 C114.187406,21.2815313 115.546781,19.8279375 115.546781,16.8284062 Z M108.23475,21.5159063 L107.906156,24.2810625 L104.531156,24.2810625 L104.531156,4.1248125 L108.374906,4.1248125 L108.374906,11.8591875 C109.218656,9.8904375 110.906156,8.8123125 113.296781,8.8123125 C116.906625,8.85965625 119.578031,11.3440312 119.578031,16.3596562 L119.578031,16.8284062 C119.578031,21.8435625 117.046781,24.7034063 113.203031,24.7034063 C110.671781,24.6560625 109.031156,23.4841875 108.23475,21.5159063 Z M98.4374062,17.0154375 L98.4374062,16.6873125 C98.4374062,13.6877812 96.8905312,12.1873125 94.8280313,12.1873125 C92.6249063,12.1873125 91.1717812,13.8748125 91.1717812,16.6873125 L91.1717812,16.9690312 C91.1717812,19.6409062 92.5780312,21.3279375 94.7811562,21.3279375 C97.0311562,21.2815312 98.4374062,19.8279375 98.4374062,17.0154375 Z M87.4217813,9.1873125 L90.7030313,9.1873125 L91.0780313,12.0471562 C91.8749063,10.1248125 93.5624063,8.8123125 96.04725,8.8123125 C99.8905313,8.8123125 102.421781,11.5784062 102.421781,16.6873125 L102.421781,17.1091875 C102.421781,22.0779375 99.6092813,24.7034062 96.04725,24.7034062 C93.6561563,24.7034062 92.0155313,23.6252812 91.2186563,21.8909062 L91.2186563,29.5310625 L87.375375,29.5310625 L87.4217813,9.1873125 Z M81.3280312,17.0154375 L81.3280312,16.6404375 C81.3280312,13.8279375 79.9217812,12.1409062 77.6717813,12.1409062 C75.4686562,12.1409062 74.016,13.6877812 74.016,16.6404375 L74.016,17.0154375 C74.016,19.7341875 75.42225,21.2815313 77.6717813,21.2815313 C79.9217812,21.2341875 81.3280312,19.7341875 81.3280312,17.0154375 Z M70.0780312,17.0627813 L70.0780312,16.6404375 C70.0780312,11.5784062 73.312875,8.8123125 77.7186563,8.8123125 C82.219125,8.8123125 85.3592813,11.5784062 85.3592813,16.6404375 L85.3592813,17.0627813 C85.3592813,22.0310625 82.3124063,24.7034063 77.7186563,24.7034063 C72.844125,24.6560625 70.0780312,22.0310625 70.0780312,17.0627813 Z M59.6249062,9.1873125 L62.8124062,9.1873125 L63.3280312,12.7029375 C63.9374062,10.3123125 65.4842812,9.0466875 68.2967812,9.0466875 L69.2811562,9.0466875 L69.2811562,13.0784062 L67.6405312,13.0784062 C64.406625,13.0784062 63.6092812,14.2029375 63.6092812,17.3904375 L63.6092812,24.3284063 L59.6717812,24.3284063 L59.6717812,9.1873125 L59.6249062,9.1873125 Z M46.0780313,9.00028125 L46.0780313,20.8591875 L49.1249063,20.8591875 C51.7030313,20.8591875 53.4374062,19.1721563 53.4374062,15.4221562 L53.4374062,14.4373125 C53.4374062,10.6873125 51.6092812,9.00028125 48.9842812,9.00028125 L46.0780313,9.00028125 Z M42.0936563,5.6248125 L49.2186562,5.6248125 C53.7655312,5.6248125 57.5155312,8.2498125 57.5155312,14.2502812 L57.5155312,15.5154375 C57.5155312,21.5623125 53.9999062,24.2810625 49.3592813,24.2810625 L42.0936563,24.2810625 L42.0936563,5.6248125 Z" id="Fill-2"></path>
            </g>
        </g>
    </g>
</svg>