<svg xmlns="http://www.w3.org/2000/svg" viewBox="0 0 36 19.07"><defs><style>.cls-1{fill:#fff;}</style></defs><title>organize-infinite</title><g id="Layer_2" data-name="Layer 2"><g id="N700"><path class="cls-1" d="M9.94,6.55l6.1.08L16.13,0l-2,0,0,2.84A7.24,7.24,0,0,0,9,.65,9.11,9.11,0,0,0,0,9.92,9.14,9.14,0,0,0,4.6,17.5c7,4.24,10.72-1.55,14.24-7.1,2.38-3.76,4.84-7.64,8-7.64A7.16,7.16,0,0,1,27.4,17a6.94,6.94,0,0,1-5.86-2.52,1,1,0,0,0-1.28-.22h0A1,1,0,0,0,20,15.8a9,9,0,0,0,6.84,3.27,9.28,9.28,0,0,0,9.15-9,9.2,9.2,0,0,0-4.81-8c-6.91-4-10.55,1.73-14,7.23-2.38,3.76-4.84,7.64-8,7.64A7.16,7.16,0,0,1,9,2.65a5.5,5.5,0,0,1,4,1.94l-3,0Z"/></g></g></svg>